<?xml version="1.0" standalone="no"?><!DOCTYPE svg PUBLIC "-//W3C//DTD SVG 1.1//EN" "http://www.w3.org/Graphics/SVG/1.1/DTD/svg11.dtd"><svg t="1581226635957" class="icon" viewBox="0 0 1024 1024" version="1.1" xmlns="http://www.w3.org/2000/svg" p-id="939" xmlns:xlink="http://www.w3.org/1999/xlink" width="200" height="200"><defs><style type="text/css"></style></defs><path d="M513.2515625 933.875c232.845 0 420.6234375-187.7775 420.6234375-420.6234375 0-155.2303125-82.6228125-290.43-205.3040625-363.0375-40.0584375-22.53375-62.5921875 25.0378125-27.5409375 47.570625 107.6596875 62.5921875 180.26625 180.26625 180.26625 315.4678125 0 202.8009375-165.2446875 368.045625-368.045625 368.045625-202.8009375 0-368.045625-165.2446875-368.045625-368.045625 0-135.200625 72.6084375-252.8746875 180.26625-315.4678125 32.548125-22.53375 12.5184375-70.1034375-27.5409375-47.570625-125.1853125 72.6084375-207.808125 207.808125-207.808125 363.0375 0 232.845 190.2825 420.6234375 423.1265625 420.6234375zM513.2515625 90.125c17.525625 0 35.05125 15.0225 35.05125 32.5471875v473.20125c0 17.525625-17.5265625 32.5471875-35.05125 32.5471875-20.030625 0-35.05125-15.0225-35.05125-32.548125v-473.20125c0-17.525625 15.0225-32.5471875 35.05125-32.5471875z" p-id="940"></path></svg>